<svg width="25" height="25" viewBox="0 0 25 25" fill="none" xmlns="http://www.w3.org/2000/svg">
<g clip-path="url(#clip0_403_42)">
<path d="M9.56201 19.5146C4.56201 21.0146 4.56201 17.0146 2.56201 16.5146M16.562 22.5146V18.6446C16.5995 18.1677 16.5351 17.6884 16.373 17.2384C16.211 16.7884 15.9549 16.378 15.622 16.0346C18.762 15.6846 22.062 14.4946 22.062 9.03459C22.0618 7.63841 21.5247 6.29578 20.562 5.28459C21.0179 4.06309 20.9856 2.71294 20.472 1.51459C20.472 1.51459 19.292 1.16459 16.562 2.99459C14.27 2.37341 11.854 2.37341 9.56201 2.99459C6.83201 1.16459 5.65201 1.51459 5.65201 1.51459C5.13839 2.71294 5.10616 4.06309 5.56201 5.28459C4.59214 6.30329 4.05453 7.65805 4.06201 9.06459C4.06201 14.4846 7.36201 15.6746 10.502 16.0646C10.173 16.4046 9.91928 16.81 9.75732 17.2545C9.59537 17.699 9.52882 18.1727 9.56201 18.6446V22.5146" stroke="#AAACFF" stroke-width="2" stroke-linecap="round" stroke-linejoin="round"/>
</g>
<defs>
<clipPath id="clip0_403_42">
<rect width="24" height="24" fill="white" transform="translate(0.562012 0.514648)"/>
</clipPath>
</defs>
</svg>
