<svg width="25" height="25" viewBox="0 0 25 25" fill="none" xmlns="http://www.w3.org/2000/svg">
<path d="M16.562 8.51465C18.1533 8.51465 19.6794 9.14679 20.8047 10.272C21.9299 11.3972 22.562 12.9233 22.562 14.5146V21.5146H18.562V14.5146C18.562 13.9842 18.3513 13.4755 17.9762 13.1004C17.6012 12.7254 17.0924 12.5146 16.562 12.5146C16.0316 12.5146 15.5229 12.7254 15.1478 13.1004C14.7727 13.4755 14.562 13.9842 14.562 14.5146V21.5146H10.562V14.5146C10.562 12.9233 11.1942 11.3972 12.3194 10.272C13.4446 9.14679 14.9707 8.51465 16.562 8.51465Z" stroke="#AAACFF" stroke-width="2" stroke-linecap="round" stroke-linejoin="round"/>
<path d="M6.56201 9.51465H2.56201V21.5146H6.56201V9.51465Z" stroke="#AAACFF" stroke-width="2" stroke-linecap="round" stroke-linejoin="round"/>
<path d="M4.56201 6.51465C5.66658 6.51465 6.56201 5.61922 6.56201 4.51465C6.56201 3.41008 5.66658 2.51465 4.56201 2.51465C3.45744 2.51465 2.56201 3.41008 2.56201 4.51465C2.56201 5.61922 3.45744 6.51465 4.56201 6.51465Z" stroke="#AAACFF" stroke-width="2" stroke-linecap="round" stroke-linejoin="round"/>
</svg>
