<svg width="25" height="25" viewBox="0 0 25 25" fill="none" xmlns="http://www.w3.org/2000/svg">
<path d="M22.3969 17.3027V20.3027C22.398 20.5812 22.341 20.8568 22.2294 21.112C22.1178 21.3672 21.9542 21.5963 21.749 21.7845C21.5438 21.9728 21.3015 22.1161 21.0377 22.2054C20.7738 22.2946 20.4943 22.3277 20.2169 22.3027C17.1397 21.9683 14.1839 20.9168 11.5869 19.2327C9.17073 17.6973 7.12224 15.6488 5.58691 13.2327C3.89688 10.6239 2.84515 7.65366 2.51691 4.56267C2.49192 4.28613 2.52478 4.00743 2.61341 3.74429C2.70203 3.48115 2.84448 3.23935 3.03167 3.03429C3.21887 2.82922 3.44671 2.66537 3.7007 2.55319C3.95468 2.441 4.22925 2.38293 4.50691 2.38267H7.50691C7.99221 2.37789 8.4627 2.54974 8.83067 2.8662C9.19864 3.18265 9.43898 3.62211 9.50691 4.10267C9.63353 5.06273 9.86836 6.00539 10.2069 6.91267C10.3414 7.27059 10.3706 7.65958 10.2908 8.03355C10.2111 8.40751 10.0258 8.75078 9.75691 9.02267L8.48691 10.2927C9.91046 12.7962 11.9834 14.8691 14.4869 16.2927L15.7569 15.0227C16.0288 14.7538 16.3721 14.5685 16.746 14.4888C17.12 14.409 17.509 14.4381 17.8669 14.5727C18.7742 14.9112 19.7168 15.146 20.6769 15.2727C21.1627 15.3412 21.6063 15.5859 21.9234 15.9602C22.2406 16.3344 22.4091 16.8122 22.3969 17.3027Z" stroke="#AAACFF" stroke-width="2" stroke-linecap="round" stroke-linejoin="round"/>
</svg>
